<svg xmlns="http://www.w3.org/2000/svg" viewBox="0 0 1280 1280">
  <defs>
    <style>
      .a {
        fill: #e5a9ff;
      }

      .b {
        fill: #cb93ff;
      }

      .b,
      .e {
        opacity: 0.59;
      }

      .c {
        fill: #b378ea;
      }

      .c,
      .d,
      .f {
        opacity: 0.58;
      }

      .d {
        fill: #f6c9ff;
      }

      .e {
        fill: #b284e0;
      }

      .f {
        fill: #cb96ff;
      }

      .g {
        fill: #895db3;
        opacity: 0.39;
      }

      .h {
        fill: #8965ab;
      }

      .i {
        fill: #cc9aff;
      }

      .j {
        fill: #fff;
      }
    </style>
  </defs>
  <polygon class="a" points="640 245.2 640 1026.22 379.24 1026.22 227.17 543.06 640 245.2" />
  <polygon class="b" points="481.96 478.54 640 245.2 640 1026.22 379.24 1026.22 390.99 702.22 481.96 478.54" />
  <polygon class="c" points="379.24 1026.22 227.17 543.06 390.99 702.22 640 883.33 640 1026.22 379.24 1026.22" />
  <polygon class="d" points="640 476.78 481.96 478.54 227.17 543.06 640 245.2 640 476.78" />
  <polygon class="a" points="640 245.2 640 1026.22 900.76 1026.22 1052.83 543.06 640 245.2" />
  <polygon class="e" points="798.04 478.54 640 245.2 640 1026.22 900.76 1026.22 889.01 702.22 798.04 478.54" />
  <polygon class="f" points="640 476.78 798.04 478.54 1052.83 543.06 640 245.2 640 476.78" />
  <polygon class="g" points="900.76 1026.22 1052.83 543.06 889.01 702.22 640 883.33 640 1026.22 900.76 1026.22" />
  <polygon class="h" points="379.24 1026.22 900.76 1026.22 640 883.33 379.24 1026.22" />
  <polygon class="i" points="481.96 478.54 798.04 478.54 889.01 702.22 640 883.33 390.99 702.22 481.96 478.54" />
  <polygon class="a" points="481.96 478.54 798.04 478.54 640 245.2 481.96 478.54" />
  <polygon class="j" points="640 245.2 502.93 469.15 798.04 478.54 491.1 489.18 390.99 702.22 464.7 494.19 227.17 543.06 471.53 469.61 640 245.2" />
</svg>
